<svg width="24" height="25" viewBox="0 0 24 25" xmlns="http://www.w3.org/2000/svg">
    <path d="M19.382 5.037c.787 0 1.428.642 1.428 1.432v5.575a.494.494 0 0 1-.02.14l.703.942a.37.37 0 0 1-.07.514l-.653.5c.043.134.079.27.107.409l.81.113a.365.365 0 0 1 .31.414l-.24 1.754a.372.372 0 0 1-.14.242.34.34 0 0 1-.269.07l-.81-.112a3.668 3.668 0 0 1-.214.362l.496.662a.369.369 0 0 1-.07.513l-1.396 1.069a.36.36 0 0 1-.508-.07l-.504-.675c-.128.041-.26.075-.393.103l-.114.838a.364.364 0 0 1-.409.312l-1.734-.242a.364.364 0 0 1-.31-.413l.114-.835a3.622 3.622 0 0 1-.353-.205l-.662.507a.34.34 0 0 1-.268.07.364.364 0 0 1-.24-.142l-.98-1.309H3.429A1.431 1.431 0 0 1 2 16.145V6.469c0-.79.64-1.432 1.428-1.432h15.954zm-2.139 6.195-.1.74a.364.364 0 0 1-.316.312c-.264.033-.52.099-.757.196a.363.363 0 0 1-.424-.12l-.442-.59-.817.626.432.576a.37.37 0 0 1-.005.45 3.069 3.069 0 0 0-.406.69.35.35 0 0 1-.383.22l-.703-.098-.14 1.026.702.1c.163.021.29.151.31.316.035.266.103.526.206.775a.369.369 0 0 1-.115.434l-.502.386a.49.49 0 0 1-.044.085l.594.793.584-.447a.36.36 0 0 1 .439 0c.204.158.431.291.677.396.152.063.24.223.219.388l-.101.74 1.015.143.101-.745a.367.367 0 0 1 .316-.314c.261-.032.513-.098.751-.195a.36.36 0 0 1 .425.119l.446.596.818-.626-.439-.586a.369.369 0 0 1 .004-.448c.165-.21.3-.44.402-.685a.351.351 0 0 1 .384-.218l.714.098.14-1.027-.714-.1a.364.364 0 0 1-.31-.316 3.034 3.034 0 0 0-.204-.768.37.37 0 0 1 .116-.434l.58-.443-.603-.804a.482.482 0 0 1-.025-.015l-.578.442a.358.358 0 0 1-.44-.001 3.023 3.023 0 0 0-.674-.395.37.37 0 0 1-.219-.389l.102-.74-1.016-.143zm.26 1.848c.588.082 1.11.39 1.472.868a2.238 2.238 0 0 1-2.08 3.57 2.217 2.217 0 0 1-1.47-.869 2.228 2.228 0 0 1-.435-1.659c.167-1.222 1.286-2.094 2.512-1.91zm-.308.712A1.503 1.503 0 0 0 16 16.204a1.5 1.5 0 0 0 2.688-.697 1.5 1.5 0 0 0-.291-1.114 1.499 1.499 0 0 0-1.203-.601zm2.647-4.677H2.967v7.029c0 .25.207.454.46.454h9.908a.48.48 0 0 1 .108.012l.189-.145a3.927 3.927 0 0 1-.11-.416l-.8-.112a.367.367 0 0 1-.31-.414l.24-1.753c.028-.2.21-.348.41-.312l.797.11c.066-.128.138-.25.219-.37l-.488-.652a.37.37 0 0 1 .07-.514l1.396-1.068a.345.345 0 0 1 .269-.072c.095.014.18.065.239.142l.5.67c.13-.042.262-.076.397-.103l.113-.833a.37.37 0 0 1 .141-.243.358.358 0 0 1 .268-.07l1.735.243a.367.367 0 0 1 .31.413l-.116.838c.121.061.238.13.351.205l.579-.444V9.115zm-.46-3.1H3.428a.458.458 0 0 0-.46.454l-.001 1.668h16.875V6.469a.457.457 0 0 0-.46-.454z" fill="#0077C0" fill-rule="evenodd"/>
</svg>
