<svg width="30" height="30" viewBox="0 0 30 30" xmlns="http://www.w3.org/2000/svg">
    <path d="M24.8 7.422c.989 0 1.794.786 1.794 1.752v2.702l-.001.011.001 3.667c.44.522.682 1.154.692 1.817.01.845-.293 1.773-.904 2.759-.327.587-.813 1.194-1.391 1.734l-2.982 2.953a.585.585 0 0 1-.78.01l-.844-.733-.022-.02-1.074-1.035-14.995.001c-.99 0-1.794-.786-1.794-1.752V9.174c0-.966.804-1.752 1.794-1.752H24.8zm-.839 8.083c-.914.012-1.442.344-1.949 1.22a.58.58 0 0 1-.496.287c-.204-.04-.398-.102-.504-.275-.53-.861-1.083-1.174-1.98-1.164-1.18.018-2.128.889-2.114 1.943.008.696.263 1.387.777 2.11.374.559.839 1.046 1.287 1.518l2.183 2.103.436.38.455-.418 2.118-2.156c.51-.478.92-.99 1.205-1.496.507-.822.753-1.545.745-2.17-.006-.492-.232-.96-.634-1.32-.416-.37-.96-.531-1.529-.562zm1.47-3.058H3.662v8.841c0 .336.284.61.633.61h13.814l-.256-.27c-.396-.424-.782-.86-1.117-1.361-.643-.903-.966-1.803-.978-2.737-.022-1.682 1.44-3.073 3.259-3.098 1.23-.061 1.968.452 2.478 1.018.496-.58 1.234-1.07 2.45-1.087a2.902 2.902 0 0 1 1.488.293v-2.209zm0-3.273a.622.622 0 0 0-.631-.61H4.294a.622.622 0 0 0-.633.61v2.13h21.77v-2.13z" fill="#15A215" fill-rule="evenodd"/>
</svg>
