<svg width="40" height="40" viewBox="0 0 40 40" xmlns="http://www.w3.org/2000/svg">
    <g fill="none" fill-rule="evenodd">
        <path d="M19.53 11.808S17.735 2.995 9.967 5.79c-4.46 1.605-4.832 8.48-4.46 11.55C6.51 25.627 19.664 34.9 19.664 34.9S33.56 22.789 34.06 16.59c.245-3.027.583-9.078-4.707-11.225-6.383-2.588-9.823 6.443-9.823 6.443" fill="#FDE6E5"/>
        <path d="M27.774 4.194c3.58.308 7.193 3.25 7.193 9.131 0 2.22-.606 4.615-1.804 7.124l-.964 1.542h3.674c.44 0 .794.375.794.837 0 .462-.354.837-.794.837h-4.718l-1.465 2.349c-4.235 5.544-9.345 9.493-9.559 9.659a.772.772 0 0 1-.467.16.772.772 0 0 1-.392-.109c-.249-.149-6.13-3.709-10.293-9.675-.342-.49-.9-1.42-1.457-2.383H4.127c-.438 0-.794-.376-.794-.838 0-.462.356-.837.794-.837h2.438c-.46-.814-.801-1.433-.837-1.498-.922-2.22-1.368-4.33-1.368-6.357 0-6.37 3.712-9.54 7.39-9.855 2.825-.243 6.112 1.252 7.782 4.94l.131.302.132-.3c1.699-3.76 5.059-5.284 7.979-5.03zm-7.284 15.34-3.152 6.252-2.897-4.302-1.652 2.181H9.387c.346.582.657 1.087.87 1.39 3.32 4.758 7.925 7.992 9.358 8.931 1.303-1.058 5.416-4.538 8.795-8.96l.848-1.361h-3.26l-2.746 5.448-2.762-9.579zm-.043-6.885c-.062.405-.394.701-.783.701s-.72-.296-.782-.701c-.77-4.949-4.178-6.94-7.003-6.7-2.953.254-5.932 2.883-5.932 8.187 0 1.797.401 3.68 1.193 5.601.004 0 .59 1.057 1.274 2.254h3.613l2.489-3.289 2.627 3.902 3.747-7.43 2.762 9.578 1.392-2.761h5.26l1.487-2.38c1.04-2.188 1.59-4.33 1.59-6.286 0-4.814-2.88-7.217-5.736-7.462-2.901-.254-6.417 1.767-7.198 6.786z" fill="#ED0A00"/>
    </g>
</svg>
