<svg width="40" height="40" viewBox="0 0 40 40" xmlns="http://www.w3.org/2000/svg">
    <g fill="none" fill-rule="evenodd">
        <path d="M17.155 21.667c1.649 0 2.987-1.435 2.987-3.206 0 1.771 1.337 3.206 2.987 3.206 1.648 0 2.987-1.435 2.987-3.206 0 1.771 1.337 3.206 2.987 3.206.311 0 .613-.054.895-.149.798-.27 1.404-.965 1.603-1.834.197-.872-.042-1.792-.631-2.425L20.142 5 9.158 17.318a2.707 2.707 0 0 0-.573 2.225c.148.795.638 1.47 1.323 1.817.385.196.819.307 1.275.307 1.648 0 2.985-1.435 2.985-3.206 0 1.771 1.339 3.206 2.987 3.206" fill="#EBEDF7"/>
        <path d="M31.985 25.184c.428.088.701.502.613.927l-1.225 5.882-.007.024v3.866a.787.787 0 0 1-.79.784.787.787 0 0 1-.788-.784v-3.265h-4.509v3.132a.787.787 0 0 1-.789.784.787.787 0 0 1-.789-.784v-3.916c0-.432.354-.784.79-.784h5.468l1.094-5.258a.796.796 0 0 1 .932-.608zm-21.79 10.699a.787.787 0 0 1-.79.784.787.787 0 0 1-.789-.784l-.002-3.86a.794.794 0 0 1-.006-.03L7.383 26.11a.784.784 0 0 1 .612-.927.794.794 0 0 1 .933.608l1.094 5.258h5.47c.436 0 .79.352.79.784v3.916a.787.787 0 0 1-.79.784.787.787 0 0 1-.789-.784v-3.132h-4.51l.001 3.265zm9.839-32.55 11.669 13.215c.771.828 1.084 2.018.822 3.17-.262 1.147-1.087 2.085-2.152 2.447a3.69 3.69 0 0 1-1.173.195c-1.246 0-2.354-.629-3.058-1.601-.702.972-1.81 1.6-3.056 1.6a3.689 3.689 0 0 1-2.307-.814v14.338h-1.577V21.606a3.687 3.687 0 0 1-2.23.754c-1.245 0-2.352-.629-3.054-1.601-.703.972-1.812 1.6-3.057 1.6a3.68 3.68 0 0 1-1.665-.4c-.912-.465-1.573-1.368-1.769-2.416a3.577 3.577 0 0 1 .758-2.921L20.034 3.333zm-.007 2.371L9.381 17.644c-.355.422-.51 1.032-.4 1.616.103.572.455 1.06.935 1.304.296.15.614.228.945.228 1.25 0 2.268-1.12 2.268-2.497h1.578c0 1.377 1.016 2.497 2.265 2.497 1.252 0 2.27-1.12 2.27-2.497h1.578c0 1.377 1.016 2.497 2.266 2.497s2.267-1.12 2.267-2.497h1.578c.002 1.622 1.488 2.873 2.932 2.385.55-.186.981-.688 1.123-1.308.144-.636-.03-1.317-.456-1.775L20.027 5.704z" fill="#3F51B5"/>
    </g>
</svg>
