<?xml version="1.0" encoding="UTF-8"?>
<svg width="40px" height="40px" viewBox="0 0 40 40" version="1.1" xmlns="http://www.w3.org/2000/svg" xmlns:xlink="http://www.w3.org/1999/xlink">
    <title>E1B51726-F706-4B5F-A3B7-9EA656461102</title>
    <g id="Cards" stroke="none" stroke-width="1" fill="none" fill-rule="evenodd">
        <g id="MBAccordionCards---Desktop---Credit" transform="translate(-341.000000, -702.000000)">
            <g id="MBAccordion/Desktop/open/credit/No-donated" transform="translate(275.000000, 465.000000)">
                <g id="MOVIMIENTOS" transform="translate(30.000000, 227.000000)">
                    <g id="category-icon/comercio-y-tiendas" transform="translate(36.000000, 10.000000)">
                        <g id="Icon/Shopping" transform="translate(6.666667, 3.333333)">
                            <path d="M25.8807843,10.947619 L25.8807843,32.5396825 L0.784313725,32.5396825 L0.784313725,10.947619 L25.8807843,10.947619 Z" id="Background/Shopping" fill="#F6F1F9"></path>
                            <path d="M13.3334902,0.000476190476 C17.0432941,0.000476190476 20.0613333,3.14174603 20.0613333,7.00365079 L20.061,10.1534762 L25.8823529,10.1539683 C26.3152941,10.1539683 26.6666667,10.5095238 26.6666667,10.947619 L26.6666667,32.5396825 C26.6666667,32.9777778 26.3152941,33.3333333 25.8823529,33.3333333 L0.784313725,33.3333333 C0.351372549,33.3333333 0,32.9777778 0,32.5396825 L0,10.947619 C0,10.5095238 0.351372549,10.1539683 0.784313725,10.1539683 L6.604,10.1534762 L6.60407843,7.00365079 C6.60407843,3.14174603 9.62368627,0.000476190476 13.3334902,0.000476190476 Z M6.604,11.7404762 L1.56862745,11.7412698 L1.56862745,31.7460317 L25.0980392,31.7460317 L25.0980392,11.7412698 L20.061,11.7404762 L20.0613333,14.5957143 C20.0613333,15.0338095 19.7099608,15.3893651 19.2770196,15.3893651 C18.8440784,15.3893651 18.4927059,15.0338095 18.4927059,14.5957143 L18.492,11.7404762 L8.172,11.7404762 L8.17270588,14.5957143 C8.17270588,15.0338095 7.82133333,15.3893651 7.38839216,15.3893651 C6.95545098,15.3893651 6.60407843,15.0338095 6.60407843,14.5957143 L6.604,11.7404762 Z M17.9560784,17.9428571 C18.3905882,17.9428571 18.7403922,18.2984127 18.7403922,18.7365079 L18.7403922,27.0174603 C18.7403922,27.4571429 18.3905882,27.8111111 17.9560784,27.8111111 L8.71058824,27.8111111 C8.27607843,27.8111111 7.92627451,27.4571429 7.92627451,27.0174603 L7.92627451,18.7365079 C7.92627451,18.2984127 8.27607843,17.9428571 8.71058824,17.9428571 L17.9560784,17.9428571 Z M17.1733333,19.5301587 L9.49490196,19.5301587 L9.49490196,26.2238095 L17.1733333,26.2238095 L17.1733333,19.5301587 Z M13.3334902,1.58777778 C10.4864314,1.58777778 8.17270588,4.01634921 8.17270588,7.00365079 L8.172,10.1534762 L18.492,10.1534762 L18.4927059,7.00365079 C18.4927059,4.01634921 16.1774118,1.58777778 13.3334902,1.58777778 Z" fill="#9D27B0"></path>
                        </g>
                    </g>
                </g>
            </g>
        </g>
    </g>
</svg>