<svg width="24" height="25" viewBox="0 0 24 25" xmlns="http://www.w3.org/2000/svg">
    <path d="M11.592 16.939a2.603 2.603 0 0 1 2.593 2.612 2.603 2.603 0 0 1-2.593 2.612A2.603 2.603 0 0 1 9 19.551a2.603 2.603 0 0 1 2.593-2.612zm0-7.462a2.603 2.603 0 0 1 2.593 2.612 2.603 2.603 0 0 1-2.593 2.612A2.603 2.603 0 0 1 9 12.09a2.603 2.603 0 0 1 2.593-2.612zm0-7.462a2.603 2.603 0 0 1 2.593 2.612 2.603 2.603 0 0 1-2.593 2.612A2.603 2.603 0 0 1 9 4.627a2.603 2.603 0 0 1 2.593-2.612z" fill="#002B45" fill-rule="evenodd"/>
</svg>
