<?xml version="1.0" encoding="UTF-8"?>
<svg width="40px" height="40px" viewBox="0 0 40 40" version="1.1" xmlns="http://www.w3.org/2000/svg" xmlns:xlink="http://www.w3.org/1999/xlink">
    <title>A481675B-A606-4FD9-A0E7-8FA336A42DB8</title>
    <g id="Cards" stroke="none" stroke-width="1" fill="none" fill-rule="evenodd">
        <g id="MBAccordionCards---Desktop---Credit" transform="translate(-341.000000, -954.000000)">
            <g id="MBAccordion/Desktop/open/credit/No-donated" transform="translate(275.000000, 465.000000)">
                <g id="MOVIMIENTOS" transform="translate(30.000000, 227.000000)">
                    <g id="📊-mbTransactorCardRow/Desktop/CONTRACTED" transform="translate(0.000000, 252.000000)">
                        <g id="a.icons/c.category/b.colored/home" transform="translate(36.000000, 10.000000)">
                            <g id="Home" transform="translate(3.333333, 6.667333)">
                                <path d="M16.9766667,0.833 L24.4187619,6.224 L24.4196825,2.82183333 L28.48,2.82183333 L28.4797619,9.165 L32.5401587,12.1063333 L29.6617619,12.106 L29.6619048,27.498 L4.2952381,27.498 L4.2947619,12.106 L1.4147619,12.1063333 L16.9766667,0.833 Z" id="Background-Home" fill="#FFF3ED"></path>
                                <path d="M17.4271429,0.1475 L23.626,4.637 L23.6260317,2.82183333 C23.6260317,2.36183333 23.9815873,1.9885 24.4196825,1.9885 L28.48,1.9885 C28.9180952,1.9885 29.2736508,2.36183333 29.2736508,2.82183333 L29.273,8.727 L32.9906349,11.4191667 C33.2763492,11.6275 33.4001587,12.0058333 33.2969841,12.3541667 C33.1938095,12.7008333 32.8874603,12.9391667 32.5398413,12.9391667 L30.455,12.939 L30.455,26.666 L32.5396825,26.6663333 C32.9777778,26.6663333 33.3333333,27.0396667 33.3333333,27.4996667 C33.3333333,27.9596667 32.9777778,28.333 32.5396825,28.333 L0.793650794,28.333 C0.355555556,28.333 0,27.9596667 0,27.4996667 C0,27.0396667 0.355555556,26.6663333 0.793650794,26.6663333 L3.5,26.666 L3.5,12.939 L1.41603175,12.9391667 C1.0684127,12.9391667 0.76047619,12.7008333 0.657301587,12.3541667 C0.555714286,12.0058333 0.67952381,11.6275 0.963650794,11.4191667 L16.5255556,0.1475 C16.7985714,-0.0491666667 17.1557143,-0.0491666667 17.4271429,0.1475 Z M28.8666667,12.9396667 L5.08730159,12.9396667 L5.08730159,26.6663333 L8.034,26.666 L8.03492063,18.2163333 C8.03492063,17.7563333 8.39047619,17.383 8.82857143,17.383 L13.9206349,17.383 C14.3587302,17.383 14.7142857,17.7563333 14.7142857,18.2163333 L14.714,26.666 L28.8666667,26.6663333 L28.8666667,12.9396667 Z M13.1253968,19.0496667 L9.62222222,19.0496667 L9.62222222,26.6663333 L13.1253968,26.6663333 L13.1253968,19.0496667 Z M25.1253968,15.2513333 C25.5634921,15.2513333 25.9190476,15.6246667 25.9190476,16.0846667 L25.9190476,20.063 C25.9190476,20.523 25.5634921,20.8963333 25.1253968,20.8963333 L18.3587302,20.8963333 C17.9206349,20.8963333 17.5650794,20.523 17.5650794,20.063 L17.5650794,16.0846667 C17.5650794,15.6246667 17.9206349,15.2513333 18.3587302,15.2513333 L25.1253968,15.2513333 Z M24.331746,16.918 L19.152381,16.918 L19.152381,19.2296667 L24.331746,19.2296667 L24.331746,16.918 Z M16.9763492,1.84583333 L3.96365079,11.2725 L4.27735037,11.2715059 C4.28277074,11.271391 4.28820439,11.2713333 4.29365079,11.2713333 L29.6619048,11.2713333 L29.678,11.272 L29.9906349,11.2725 L28.1236038,9.92152536 C28.0571599,9.88637453 27.9960547,9.84170678 27.9419156,9.78923085 L24.091121,7.00054209 C24.0059252,6.95976985 23.9287834,6.90363766 23.8629119,6.83552273 L16.9763492,1.84583333 Z M27.6863492,3.65516667 L25.2133333,3.65516667 L25.213,5.786 L27.686,7.577 L27.6863492,3.65516667 Z" fill="#FF8B4F"></path>
                            </g>
                        </g>
                    </g>
                </g>
            </g>
        </g>
    </g>
</svg>